HIERARCHY
ROOT root
{
	OFFSET 0.000000 0.000000 0.000000
	CHANNELS 6 Xposition Yposition Zposition Zrotation Yrotation Xrotation
	JOINT lhip
	{
		OFFSET 0.058581 -0.082280 -0.017664
		CHANNELS 3 Zrotation Yrotation Xrotation
		JOINT lknee
		{
			OFFSET 0.043451 -0.386469 0.008037
			CHANNELS 3 Zrotation Yrotation Xrotation
			JOINT lankle
			{
				OFFSET -0.014790 -0.426874 -0.037428
				CHANNELS 3 Zrotation Yrotation Xrotation
				JOINT ltoe
				{
					OFFSET 0.041054 -0.060286 0.122042
					CHANNELS 3 Zrotation Yrotation Xrotation
					End Site
					{
						OFFSET 0.000000 0.000000 0.000000
					}
				}
			}
		}
	}
	JOINT rhip
	{
		OFFSET -0.060310 -0.090513 -0.013543
		CHANNELS 3 Zrotation Yrotation Xrotation
		JOINT rknee
		{
			OFFSET -0.043257 -0.383688 -0.004843
			CHANNELS 3 Zrotation Yrotation Xrotation
			JOINT rankle
			{
				OFFSET 0.019056 -0.420046 -0.034562
				CHANNELS 3 Zrotation Yrotation Xrotation
				JOINT rtoe
				{
					OFFSET -0.034840 -0.062106 0.130323
					CHANNELS 3 Zrotation Yrotation Xrotation
					End Site
					{
						OFFSET 0.000000 0.000000 0.000000
					}
				}
			}
		}
	}
	JOINT lowerback
	{
		OFFSET 0.004439 0.124404 -0.038385
		CHANNELS 3 Zrotation Yrotation Xrotation
		JOINT upperback
		{
			OFFSET 0.004488 0.137956 0.026820
			CHANNELS 3 Zrotation Yrotation Xrotation
			JOINT chest
			{
				OFFSET -0.002265 0.056032 0.002855
				CHANNELS 3 Zrotation Yrotation Xrotation
				JOINT lowerneck
				{
					OFFSET -0.013390 0.211636 -0.033468
					CHANNELS 3 Zrotation Yrotation Xrotation
					JOINT upperneck
					{
						OFFSET 0.010113 0.088937 0.050410
						CHANNELS 3 Zrotation Yrotation Xrotation
						End Site
						{
							OFFSET 0.000000 0.000000 0.000000
						}
					}
				}
				JOINT lclavicle
				{
					OFFSET 0.071702 0.114000 -0.018898
					CHANNELS 3 Zrotation Yrotation Xrotation
					JOINT lshoulder
					{
						OFFSET 0.122921 0.045205 -0.019046
						CHANNELS 3 Zrotation Yrotation Xrotation
						JOINT lelbow
						{
							OFFSET 0.255332 -0.015649 -0.022946
							CHANNELS 3 Zrotation Yrotation Xrotation
							JOINT lwrist
							{
								OFFSET 0.265709 0.012698 -0.007375
								CHANNELS 3 Zrotation Yrotation Xrotation
								End Site
								{
									OFFSET 0.000000 0.000000 0.000000
								}
							}
						}
					}
				}
				JOINT rclavicle
				{
					OFFSET -0.082954 0.112472 -0.023707
					CHANNELS 3 Zrotation Yrotation Xrotation
					JOINT rshoulder
					{
						OFFSET -0.113228 0.046853 -0.008472
						CHANNELS 3 Zrotation Yrotation Xrotation
						JOINT relbow
						{
							OFFSET -0.260127 -0.014369 -0.031269
							CHANNELS 3 Zrotation Yrotation Xrotation
							JOINT rwrist
							{
								OFFSET -0.269108 0.006794 -0.006027
								CHANNELS 3 Zrotation Yrotation Xrotation
								End Site
								{
									OFFSET 0.000000 0.000000 0.000000
								}
							}
						}
					}
				}
			}
		}
	}
}
MOTION
Frames: 5
Frame Time: 0.033333
0.801168 0.829023 0.841999 0.444175 11.334406 88.879251 24.209018 10.531297 -36.464660 -14.816743 0.203433 77.080700 -1.532758 4.089435 -29.692084 0.000000 -0.000000 0.000000 -19.275591 -11.362367 -12.841085 5.978121 4.731024 37.113110 13.345119 2.021497 -18.243205 0.000000 -0.000000 0.000000 -0.402496 3.854827 35.195376 0.810472 -1.716666 -5.377556 1.063037 -1.727230 5.007208 2.411818 -13.208609 10.540414 7.793372 -11.592681 11.649150 -14.194586 12.573285 -3.403523 -43.818105 -0.276014 -6.589224 17.960014 -24.459917 -5.525947 19.353216 -11.364885 -19.544433 5.593725 -7.496784 -7.022723 33.805322 -2.496763 -15.525674 -18.081711 11.331666 -43.454999 -1.194821 -1.084896 -45.517975 
0.812122 0.824302 0.841144 1.372798 11.711682 89.328287 24.046027 10.496270 -37.606080 -15.503045 1.040395 77.234873 -1.091056 3.426107 -29.490742 0.000000 -0.000000 0.000000 -19.819085 -12.007131 -11.291681 5.820441 4.250956 34.869457 13.710720 1.923620 -17.044274 0.000000 -0.000000 0.000000 -0.580300 4.645672 34.459689 0.954876 -2.369448 -5.951042 1.054280 -1.932871 5.242614 3.333218 -12.839656 10.377197 7.896073 -11.347509 12.039560 -13.866066 12.935272 -3.558528 -43.296170 -0.720757 -6.696585 18.341528 -25.283045 -5.489573 18.817573 -11.922684 -19.469678 5.494418 -8.744774 -7.533515 35.450180 -3.021008 -14.716050 -18.895274 10.998597 -42.321584 0.987371 -0.676931 -46.246075 
0.824877 0.819808 0.840482 2.548458 12.176202 90.122186 23.553678 10.679975 -39.049667 -15.363444 2.027815 77.244628 -0.803220 3.777298 -29.653659 0.000000 -0.000000 0.000000 -19.782816 -12.622112 -9.705807 5.324164 4.685863 32.039935 14.043007 1.011927 -16.456586 0.000000 -0.000000 0.000000 -1.034652 5.276686 33.406394 1.029659 -2.668295 -6.520249 1.270285 -2.126390 5.623731 3.812701 -12.162440 9.970472 7.658735 -10.089838 12.758327 -13.656316 13.337907 -3.570668 -42.706040 -1.397023 -6.821646 18.452209 -26.392540 -5.237509 18.772090 -12.261414 -19.714905 5.833191 -9.974873 -7.470002 35.900241 -3.590816 -14.173206 -18.135656 11.340780 -41.849390 0.165343 -0.299055 -46.143257 
0.839939 0.814464 0.839224 4.153998 12.618923 91.045126 22.953938 10.661987 -40.282066 -14.719987 3.719994 77.641464 -0.261196 4.094009 -29.805909 0.000000 -0.000000 0.000000 -19.718437 -12.869096 -7.751780 4.384535 4.629669 28.835154 15.014908 -0.271111 -15.199279 0.000000 -0.000000 0.000000 -1.301449 5.885067 32.071027 1.207811 -3.135730 -6.392797 1.390834 -2.499985 5.381428 3.591676 -10.858029 10.043936 7.572000 -8.120181 13.285605 -13.685440 13.637017 -3.357026 -41.673326 -1.628199 -6.963018 18.524923 -27.991988 -4.777886 19.400389 -12.850618 -19.121878 6.224846 -10.728958 -7.081441 35.843208 -3.978660 -13.486536 -17.724232 10.907186 -42.203057 -0.589574 -1.197970 -45.756609 
0.857084 0.809843 0.838874 6.213092 12.640893 92.166271 21.588186 10.289382 -40.938634 -14.586925 4.317910 77.352129 0.375704 3.839489 -30.801901 0.000000 -0.000000 0.000000 -20.277255 -13.700061 -5.720512 3.116246 3.564788 25.414758 16.534711 -1.120558 -12.664895 0.000000 -0.000000 0.000000 -1.435062 6.453710 30.799082 1.120420 -3.676161 -6.612845 1.527726 -2.616876 5.432926 3.415375 -9.184533 9.085876 7.234615 -6.549584 13.631069 -13.142346 13.545172 -3.686672 -41.177343 -2.021861 -6.887487 18.307292 -29.368497 -3.592297 17.959591 -13.340326 -18.796535 6.023922 -11.493008 -7.324902 35.831549 -4.374195 -13.779567 -17.657529 9.543646 -43.505197 -0.257519 -1.802199 -45.718534 
